<svg xmlns="http://www.w3.org/2000/svg" width="45" height="33" viewBox="0 0 45 33">
  <path id="Icon_zocial-email" data-name="Icon zocial-email" d="M.072,34.145V6.991q0-.047.13-.9L14.913,19.767.246,35.088a4.3,4.3,0,0,1-.174-.943ZM2.025,4.209a1.739,1.739,0,0,1,.738-.141H42.382a2.281,2.281,0,0,1,.781.141L28.409,17.928l-1.953,1.7-3.862,3.441-3.862-3.441-1.953-1.7Zm.043,32.717,14.8-15.416,5.728,5.044,5.728-5.044,14.8,15.416a1.936,1.936,0,0,1-.738.141H2.762a1.828,1.828,0,0,1-.694-.141Zm28.206-17.16L44.942,6.1a3.037,3.037,0,0,1,.13.9V34.145a3.9,3.9,0,0,1-.13.943Z" transform="translate(-0.072 -4.068)" fill="#ffca28"/>
</svg>
